<?xml version="1.0" standalone="no"?>
<!DOCTYPE svg PUBLIC "-//W3C//DTD SVG 20010904//EN"
 "http://www.w3.org/TR/2001/REC-SVG-20010904/DTD/svg10.dtd">
<svg version="1.0" xmlns="http://www.w3.org/2000/svg"
 width="512.000000pt" height="512.000000pt" viewBox="0 0 512.000000 512.000000"
 preserveAspectRatio="xMidYMid meet">
<metadata>
Created by potrace 1.14, written by Peter Selinger 2001-2017
</metadata>
<g transform="translate(0.000000,512.000000) scale(0.100000,-0.100000)"
fill="#000000" stroke="none">
<path d="M444 5105 c-207 -45 -385 -225 -430 -434 -21 -99 -21 -4123 0 -4222
45 -211 224 -390 435 -435 99 -21 4123 -21 4222 0 211 45 390 224 435 435 21
99 21 4123 0 4222 -45 211 -224 390 -435 435 -95 20 -4134 19 -4227 -1z m2396
-945 c309 -53 513 -167 570 -317 56 -147 -19 -332 -160 -397 -34 -15 -64 -20
-125 -19 -68 0 -100 7 -211 46 -192 66 -267 80 -388 75 -115 -6 -184 -30 -251
-89 -82 -72 -109 -200 -61 -283 49 -84 150 -133 471 -230 262 -80 328 -104
461 -167 329 -156 494 -402 511 -764 9 -197 -39 -399 -135 -560 -59 -100 -210
-255 -310 -320 -232 -149 -508 -210 -842 -185 -473 34 -778 155 -875 347 -26
51 -30 69 -30 143 0 98 20 152 80 218 59 66 113 87 220 86 82 -1 107 -7 280
-64 105 -34 228 -70 275 -81 236 -52 461 5 554 140 42 60 67 136 67 206 2 175
-112 257 -531 380 -124 36 -274 84 -335 106 -335 124 -508 287 -576 544 -27
103 -29 301 -4 420 80 378 355 650 760 754 176 45 372 48 585 11z"/>
</g>
</svg>
